HIERARCHY
ROOT Pelvis
{
	OFFSET 0.000000 0.000000 0.000000
	CHANNELS 6 Xposition Yposition Zposition Zrotation Yrotation Xrotation 
	JOINT Left_hip
	{
		OFFSET 0.070241 -0.085575 -0.010474
		CHANNELS 3 Zrotation Yrotation Xrotation
		JOINT Left_knee
		{
			OFFSET 0.032125 -0.356873 -0.000555
			CHANNELS 3 Zrotation Yrotation Xrotation
			JOINT Left_ankle
			{
				OFFSET -0.010961 -0.370212 -0.042278
				CHANNELS 3 Zrotation Yrotation Xrotation
				JOINT Left_foot
				{
					OFFSET 0.023322 -0.052281 0.110104
					CHANNELS 3 Zrotation Yrotation Xrotation
					End Site
					{
						OFFSET 0.000000 0.000000 0.000000
					}
				}
			}
		}
	}
	JOINT Right_hip
	{
		OFFSET -0.068518 -0.084320 -0.007402
		CHANNELS 3 Zrotation Yrotation Xrotation
		JOINT Right_knee
		{
			OFFSET -0.037345 -0.364815 -0.003619
			CHANNELS 3 Zrotation Yrotation Xrotation
			JOINT Right_ankle
			{
				OFFSET 0.013394 -0.370006 -0.039954
				CHANNELS 3 Zrotation Yrotation Xrotation
				JOINT Right_foot
				{
					OFFSET -0.019600 -0.045455 0.113223
					CHANNELS 3 Zrotation Yrotation Xrotation
					End Site
					{
						OFFSET 0.000000 0.000000 0.000000
					}
				}
			}
		}
	}
	JOINT Spine1
	{
		OFFSET -0.002404 0.098129 -0.018169
		CHANNELS 3 Zrotation Yrotation Xrotation
		JOINT Spine2
		{
			OFFSET 0.003989 0.127209 -0.001742
			CHANNELS 3 Zrotation Yrotation Xrotation
			JOINT Spine3
			{
				OFFSET 0.001758 0.046641 0.023475
				CHANNELS 3 Zrotation Yrotation Xrotation
				JOINT Neck
				{
					OFFSET -0.003759 0.194901 -0.039982
					CHANNELS 3 Zrotation Yrotation Xrotation
					JOINT Head
					{
						OFFSET 0.003999 0.063756 0.047665
						CHANNELS 3 Zrotation Yrotation Xrotation
						End Site
						{
							OFFSET 0.000000 0.000000 0.000000
						}
					}
				}
				JOINT Left_collar
				{
					OFFSET 0.071816 0.109048 -0.028973
					CHANNELS 3 Zrotation Yrotation Xrotation
					JOINT Left_shoulder
					{
						OFFSET 0.084027 0.032269 -0.006525
						CHANNELS 3 Zrotation Yrotation Xrotation
						JOINT Left_elbow
						{
							OFFSET 0.243854 -0.013992 -0.025905
							CHANNELS 3 Zrotation Yrotation Xrotation
							JOINT Left_wrist
							{
								OFFSET 0.232156 0.008196 -0.000339
								CHANNELS 3 Zrotation Yrotation Xrotation
								JOINT Left_palm
								{
									OFFSET 0.075377 -0.009461 -0.012494
									CHANNELS 3 Zrotation Yrotation Xrotation
									End Site
									{
										OFFSET 0.000000 0.000000 0.000000
									}
								}
							}
						}
					}
				}
				JOINT Right_collar
				{
					OFFSET -0.073768 0.107001 -0.033755
					CHANNELS 3 Zrotation Yrotation Xrotation
					JOINT Right_shoulder
					{
						OFFSET -0.086837 0.032868 -0.009431
						CHANNELS 3 Zrotation Yrotation Xrotation
						JOINT Right_elbow
						{
							OFFSET -0.236446 -0.012544 -0.018747
							CHANNELS 3 Zrotation Yrotation Xrotation
							JOINT Right_wrist
							{
								OFFSET -0.236110 0.006124 -0.004327
								CHANNELS 3 Zrotation Yrotation Xrotation
								JOINT Right_palm
								{
									OFFSET -0.074800 -0.006875 -0.009610
									CHANNELS 3 Zrotation Yrotation Xrotation
									End Site
									{
										OFFSET 0.000000 0.000000 0.000000
									}
								}
							}
						}
					}
				}
			}
		}
	}
}
MOTION
Frames: 10
Frame Time: 0.100000
0.000000 0.000000 0.000000 175.918982 26.845110 -9.010765 1.621048 5.795445 0.585032 0.728633 -9.482778 -5.419146 -4.335983 23.902697 -0.481442 8.841681 -4.721612 -2.548858 1.272270 -4.802339 1.767003 -2.078909 9.817481 -4.688251 1.209389 -23.146785 -4.298321 1.054874 8.152586 6.342491 -0.933652 1.950121 -0.845101 0.675453 -3.892957 -6.562101 -0.103795 1.408823 0.841603 -3.232670 -3.856386 8.237474 6.573732 0.734974 6.317355 -2.112881 5.717221 -9.886015 8.847325 -15.354200 -19.277668 1.997974 11.379736 -7.935805 -4.721130 -1.125438 32.295838 -1.900368 -7.529533 -1.718599 5.195832 -4.237951 -9.003457 -4.394627 9.159001 -23.523726 -10.068458 -14.619228 -15.270238 0.953327 -1.311294 28.494213 7.838057 8.516478 -3.473027 
0.001237 0.000250 -0.002843 175.975856 26.852220 -9.213752 1.586465 5.800720 0.610481 0.707436 -9.471526 -5.379911 -4.355851 23.888930 -0.266899 8.750203 -4.744549 -2.600557 1.244808 -4.792857 1.794619 -2.144606 9.965016 -4.656125 1.464659 -23.351081 -4.294662 0.446717 8.503477 6.349941 -0.884229 1.942713 -0.411744 0.521110 -3.901751 -6.578668 -0.268027 1.405845 1.103316 -3.990276 -6.388579 8.724071 6.549563 -1.608106 6.054687 -1.901839 5.835181 -9.808004 8.545472 -15.362492 -19.323447 1.880426 11.449779 -7.950695 -4.709582 -0.982628 32.705965 -1.695544 -7.508569 -1.758495 5.130821 -3.960009 -9.194053 -4.169942 9.078048 -23.438834 -9.981054 -14.954960 -14.844452 0.829912 -1.334701 28.925768 7.507313 8.413172 -3.534652 
0.002685 0.000624 -0.005649 175.963547 26.954214 -9.348411 1.580322 5.792467 0.484301 0.692987 -9.513019 -5.320631 -4.436227 23.876888 -0.091745 8.860753 -4.796597 -2.707184 1.240173 -4.773903 1.728141 -2.156907 10.015805 -4.652016 1.598007 -23.460658 -4.193770 0.087809 8.653827 6.271236 -0.873597 1.944257 -0.112691 0.452250 -3.931064 -6.552514 -0.308226 1.403492 1.268858 -4.274545 -7.097590 9.063176 6.608225 -2.110402 6.111769 -1.832720 5.799565 -9.755758 8.440138 -15.461472 -19.348165 1.832157 11.296225 -7.854366 -4.594135 -1.053057 32.680254 -1.707025 -7.503134 -1.716204 4.996142 -3.878390 -9.252656 -4.187471 9.111136 -23.478648 -9.933229 -14.938647 -14.734131 0.720961 -1.254770 28.947029 7.432885 8.385963 -3.518094 
0.004684 0.001102 -0.009418 175.959823 26.759650 -9.453546 1.603206 5.812555 0.352508 0.721316 -9.463587 -5.355677 -4.458396 23.984329 0.208634 8.976883 -4.832662 -2.889599 1.284189 -4.687866 1.458116 -2.141027 10.114929 -4.532196 1.760501 -23.421497 -4.029826 -0.249092 8.796769 6.109416 -0.808669 1.980511 0.386159 0.399369 -3.871704 -6.445676 -0.262358 1.472055 1.406073 -4.406813 -6.901632 9.028071 6.665478 -1.979253 5.858847 -1.821652 5.595704 -9.693912 8.336074 -15.276551 -19.366114 1.862315 11.128402 -7.911363 -4.343154 -1.180188 32.495119 -1.790842 -7.515848 -1.717539 4.969678 -3.583152 -9.065111 -4.068213 9.074866 -23.432390 -9.977217 -14.664857 -14.480111 0.526828 -1.119033 28.995587 7.448031 8.347158 -3.550953 
0.008169 0.001975 -0.015761 175.937444 26.408452 -9.387254 1.642284 5.847986 -0.341577 0.693101 -9.267981 -5.069756 -4.453837 24.164308 0.660714 9.119528 -4.915716 -3.287852 1.392988 -4.481368 0.453577 -1.963685 10.296747 -3.764048 2.118025 -23.449359 -3.977642 -1.099212 9.197017 5.818696 -0.640660 2.003929 1.372947 0.305844 -3.792715 -6.504711 -0.147571 1.613895 1.579955 -4.787124 -6.742363 8.541377 6.839569 -1.851100 5.510660 -1.861334 5.006400 -9.605233 7.981652 -15.061438 -19.496594 1.786587 11.220355 -8.341458 -4.162108 -1.076383 32.132260 -1.959863 -7.621682 -1.798689 5.048329 -2.761037 -8.749000 -3.729802 9.212298 -23.601992 -9.832533 -14.942888 -14.651277 0.352464 -1.174299 28.968867 7.493140 8.347479 -3.682293 
0.014150 0.003853 -0.026802 175.492852 25.706919 -8.875899 1.899478 6.928649 -2.301584 1.337093 -10.251013 -4.302305 -5.329021 21.955527 1.083405 5.833847 -3.990776 -6.306660 1.921524 -5.242851 -2.176049 -1.784936 11.828687 -1.971649 7.473219 -22.362213 -4.613377 -6.697826 11.127682 4.416569 -0.074892 1.960669 2.690880 0.157137 -3.900862 -6.035854 0.416358 2.109912 0.967423 -6.082118 -6.185184 5.408083 8.063905 -2.969106 7.643789 -0.500495 1.475499 -11.536645 5.889081 -11.749041 -19.052480 1.260433 10.525926 -7.033084 -0.701974 -3.792566 30.351745 -4.658164 -9.839831 -5.611614 4.208516 1.251224 -7.163814 -3.274134 5.946048 -25.527503 -8.770218 -13.767757 -14.343668 -1.531594 0.763222 26.881399 9.057021 9.658697 -6.901940 
0.021726 0.006384 -0.042139 175.582532 25.018255 -8.027081 1.698463 6.900193 -4.938605 1.235091 -9.393571 -3.116374 -5.183987 22.044135 1.904502 5.761938 -3.808458 -7.145067 2.218410 -4.714812 -5.432801 -1.484496 11.875034 0.100841 8.305659 -22.427116 -4.479508 -8.825067 11.892893 3.379206 0.182192 2.012207 5.327185 -0.252710 -3.712938 -6.409161 0.671542 2.376078 1.682262 -6.676599 -6.196678 3.207583 9.136605 -3.068529 4.777429 -0.038233 -0.273093 -11.484059 4.551576 -11.506633 -18.549014 2.279459 6.166783 -9.529601 3.515242 -4.201661 27.045678 -5.879904 -10.176216 -6.226774 3.452081 3.345098 -6.549654 -0.979517 6.403884 -24.558189 -9.077466 -9.922400 -15.411327 -5.164663 1.796553 23.083349 9.767112 9.665067 -7.024217 
0.033350 0.011823 -0.064078 175.791415 25.514770 -6.686211 1.459459 5.617307 -11.076319 0.228300 -7.765496 2.322027 -4.285906 21.289133 2.645227 4.975607 -3.050535 -9.481595 2.414376 -3.785075 -11.340376 -0.917749 10.966534 5.478850 9.242763 -22.660503 -5.087176 -11.894113 13.604454 2.409559 0.124428 1.993652 10.231146 -0.636185 -3.524558 -8.215538 0.840455 2.528839 2.993991 -7.465941 -7.828309 -1.007827 10.467229 -2.528359 2.548349 -0.901586 -0.837654 -10.182681 -2.759276 -11.764978 -13.274432 7.021375 -11.679594 -12.983361 19.390723 -4.844017 14.562489 -10.018599 -11.252721 -6.101324 4.215526 3.707991 -5.196505 6.641381 6.700655 -19.321655 -11.495712 4.499265 -15.196773 -20.369537 4.949589 16.315179 13.269841 10.660032 -6.843593 
0.046570 0.023120 -0.088771 176.244623 26.296717 -6.180045 1.369307 4.506052 -16.638596 -0.828196 -5.353204 8.719802 -3.504402 18.936233 2.834059 4.178702 -0.942887 -12.407675 1.871019 -2.727359 -16.666447 -0.312231 8.812570 11.920185 9.448503 -20.835730 -6.271557 -14.503286 13.575912 1.568106 0.508790 1.890219 14.715202 -1.157509 -3.292744 -5.932304 0.515926 2.653578 2.075599 -7.018774 -8.449922 -4.741717 10.179857 -2.799802 0.393251 -5.243058 -3.550310 -7.881145 -15.889841 -12.465006 -5.943534 17.815097 -32.459400 -16.156041 33.059574 -6.131683 8.513198 -13.762451 -12.462773 -7.101121 7.630144 6.632002 -1.836590 18.799462 8.092151 -12.099204 -16.849987 20.591543 -12.689986 -35.820841 10.215274 14.798088 16.422574 11.941806 -6.487348 
0.056777 0.033569 -0.107488 176.592101 25.840969 -6.488757 1.469071 3.880088 -19.452646 -0.893340 -3.000730 12.551830 -2.883559 17.220462 2.993760 4.906560 1.545797 -14.230284 1.453585 -1.946038 -19.781791 -0.073232 7.087097 16.379172 10.692968 -17.807195 -7.037221 -18.835037 10.892910 -0.651482 1.021964 1.822541 17.928209 -1.537052 -3.076120 -4.131970 0.371868 2.932987 0.906848 -7.241190 -9.655273 -5.973889 9.495320 -1.584315 0.351186 -9.771000 -8.955890 -4.965594 -38.144000 -17.652775 5.774515 17.574294 -33.068479 -1.877343 37.095056 -4.383703 17.511370 -16.525384 -15.294740 -11.366940 10.947473 11.517334 0.751173 35.716372 14.802677 -2.201343 -15.178559 27.756889 -4.856506 -34.826795 7.981831 12.346595 18.772078 14.159075 -7.697852 
